<svg xmlns="http://www.w3.org/2000/svg" width="280" height="64" viewBox="0 0 280 64" role="img" aria-labelledby="title desc">
  <title id="title">Career Workbench</title>
  <desc id="desc">Career Workbench geometric C and W logo mark with wordmark.</desc>
  <defs>
    <linearGradient id="markGradient" x1="8" x2="52" y1="8" y2="56" gradientUnits="userSpaceOnUse">
      <stop stop-color="#1268ff"/>
      <stop offset="1" stop-color="#16b981"/>
    </linearGradient>
  </defs>
  <g fill="none" stroke="url(#markGradient)" stroke-linecap="round" stroke-linejoin="round">
    <path d="M32 6 54.5 19v26L32 58 9.5 45V19L32 6Z" stroke-width="6"/>
    <path d="M39.5 20H27.2a9 9 0 0 0-9 9v6a9 9 0 0 0 9 9h12.3" stroke-width="6"/>
    <path d="m34.5 34.5 5 5 10-11.4" stroke-width="6"/>
  </g>
  <g fill="#050914">
    <path d="M82.6 40.4c-6.9 0-11.7-4.9-11.7-12.1 0-7.1 4.8-12.1 11.7-12.1 5.5 0 9.7 3.1 10.7 8h-5.7c-.8-2.2-2.6-3.4-5-3.4-3.6 0-5.9 2.9-5.9 7.5s2.3 7.5 5.9 7.5c2.5 0 4.4-1.3 5.1-3.5h5.7c-1.1 5-5.2 8.1-10.8 8.1Z"/>
    <path d="M101.4 40.1h-5.2V16.5h9.7c5.5 0 8.9 3 8.9 7.9 0 3.1-1.5 5.5-4.1 6.8l4.7 8.9h-5.9l-4-8h-4.1v8Zm0-12.2h4c2.6 0 4-1.2 4-3.4 0-2.1-1.4-3.4-4-3.4h-4v6.8Z"/>
    <path d="M126.5 40.4c-5.2 0-8.8-3.6-8.8-9 0-5.3 3.5-9 8.7-9 5 0 8.3 3.5 8.3 8.7v1.5h-11.9c.3 2.4 1.7 3.8 3.9 3.8 1.6 0 2.8-.7 3.4-1.9h4.5c-.9 3.6-4 5.9-8.1 5.9Zm-3.6-10.9h6.9c-.2-2-1.4-3.2-3.4-3.2-1.9 0-3.2 1.2-3.5 3.2Z"/>
    <path d="M146.2 40.4c-5.2 0-8.8-3.6-8.8-9 0-5.3 3.5-9 8.7-9 5 0 8.3 3.5 8.3 8.7v1.5h-11.9c.3 2.4 1.7 3.8 3.9 3.8 1.6 0 2.8-.7 3.4-1.9h4.5c-.9 3.6-4 5.9-8.1 5.9Zm-3.6-10.9h6.9c-.2-2-1.4-3.2-3.4-3.2-1.9 0-3.2 1.2-3.5 3.2Z"/>
    <path d="M162.8 40.1h-5.1V22.7h4.9v2.7c.9-1.9 2.5-2.9 4.8-2.9h1.1v4.8H167c-2.7 0-4.2 1.5-4.2 4.3v8.5Z"/>
    <path d="M184.7 40.1h-6.1l-6.3-23.6h5.6l3.9 16.9 4.5-16.9h5.1l4.5 16.9 3.9-16.9h5.5l-6.3 23.6h-6.1l-4.1-15.3-4.1 15.3Z"/>
    <path d="M215 40.4c-5.4 0-9.1-3.6-9.1-9 0-5.3 3.7-9 9.1-9s9.1 3.7 9.1 9c0 5.4-3.7 9-9.1 9Zm0-4.2c2.4 0 3.9-1.8 3.9-4.8 0-2.9-1.5-4.8-3.9-4.8s-3.9 1.9-3.9 4.8c0 3 1.5 4.8 3.9 4.8Z"/>
    <path d="M232.6 40.1h-5.1V22.7h4.9v2.7c.9-1.9 2.5-2.9 4.8-2.9h1.1v4.8h-1.5c-2.7 0-4.2 1.5-4.2 4.3v8.5Z"/>
    <path d="M246.1 40.1H241V16.5h5.1v12.8l5.8-6.6h6l-6.7 7.4 7.2 10h-6l-4.7-6.7-1.6 1.7v5Z"/>
  </g>
</svg>
